<svg width="224" height="233" viewBox="0 0 224 233" fill="none" xmlns="http://www.w3.org/2000/svg">
<g clip-path="url(#clip0_238_341)">
<path d="M201.655 225.731C202.503 225.788 202.972 224.646 202.33 223.98L202.266 223.705C202.275 223.683 202.283 223.661 202.292 223.639C203.149 221.421 206.055 221.437 206.906 223.657C207.66 225.628 208.621 227.602 208.858 229.686C208.964 230.606 208.916 231.543 208.728 232.446C210.496 228.258 211.426 223.684 211.426 219.084C211.426 217.929 211.368 216.773 211.249 215.62C211.151 214.677 211.016 213.74 210.841 212.812C209.894 207.792 207.845 203.012 204.889 199.019C203.468 198.177 202.283 196.86 201.567 195.282C201.31 194.712 201.109 194.1 201.013 193.476C201.175 193.499 201.623 190.829 201.501 190.665C201.726 190.294 202.13 190.11 202.376 189.748C203.6 187.948 205.286 188.262 206.167 190.708C208.048 191.737 208.066 193.444 206.912 195.086C206.178 196.131 206.077 197.544 205.432 198.662C205.499 198.754 205.568 198.843 205.634 198.935C206.849 200.626 207.9 202.443 208.787 204.351C208.536 202.23 208.906 199.674 209.536 198.027C210.254 196.15 211.599 194.569 212.783 192.946C214.206 190.997 217.123 191.848 217.374 194.319C217.376 194.343 217.378 194.367 217.381 194.391C217.205 194.498 217.032 194.612 216.864 194.733C215.904 195.422 216.236 197.036 217.373 197.226L217.399 197.231C217.336 197.918 217.227 198.599 217.068 199.269C218.587 205.641 215.307 207.961 210.623 208.066C210.52 208.123 210.419 208.181 210.316 208.235C210.79 209.684 211.169 211.17 211.45 212.677C211.702 214.008 211.877 215.353 211.975 216.704C212.097 218.409 212.087 220.122 211.954 221.824L211.962 221.764C212.299 219.889 213.237 218.139 214.6 216.925C216.63 215.117 219.498 214.451 221.688 212.998C222.742 212.298 224.092 213.202 223.909 214.528L223.9 214.591C223.573 214.735 223.255 214.902 222.948 215.088C222.772 215.196 222.6 215.31 222.431 215.431C221.471 216.12 221.803 217.734 222.941 217.924L222.966 217.929C222.985 217.932 223.001 217.934 223.019 217.937C222.46 219.378 221.681 220.714 220.705 221.867C219.755 227.429 215.675 227.957 211.31 226.337H211.307C210.83 228.591 210.133 230.793 209.237 232.892H201.84C201.814 232.802 201.79 232.71 201.766 232.621C202.45 232.667 203.139 232.624 203.813 232.489C203.264 231.759 202.715 231.023 202.166 230.293C202.153 230.278 202.143 230.264 202.132 230.25C201.854 229.876 201.573 229.505 201.294 229.131L201.294 229.131C201.277 227.984 201.403 226.84 201.655 225.731L201.655 225.731V225.731Z" fill="#F2F2F2"/>
<path d="M65.5703 232.47C65.5703 232.764 65.7879 233 66.0588 233H223.38C223.65 233 223.868 232.764 223.868 232.47C223.868 232.177 223.65 231.941 223.38 231.941H66.0588C65.7879 231.941 65.5703 232.177 65.5703 232.47Z" fill="#CCCCCC"/>
<path d="M89.4423 232.774H17.0291C8.19954 232.774 1.01611 224.985 1.01611 215.41V46.6581C1.01611 37.0836 8.19954 29.2941 17.0291 29.2941H89.4423C98.2717 29.2941 105.455 37.0836 105.455 46.6581V215.41C105.455 224.985 98.2717 232.774 89.4423 232.774Z" fill="#3F3D56"/>
<path d="M105.455 91.3666C105.082 91.3666 104.778 91.6961 104.778 92.1012V115.608C104.778 116.013 105.082 116.342 105.455 116.342C105.829 116.342 106.133 116.013 106.133 115.608V92.1012C106.133 91.6961 105.829 91.3666 105.455 91.3666Z" fill="#3F3D56"/>
<path d="M103.931 46.6583V215.407C103.931 223.741 97.9495 230.558 90.386 231.087H90.3826C90.2708 231.094 90.159 231.102 90.0439 231.105C89.844 231.116 89.6442 231.12 89.441 231.12C89.441 231.12 88.6958 231.061 87.3342 230.951C85.959 230.841 83.9572 230.676 81.4609 230.459C80.7123 230.396 79.9231 230.327 79.0899 230.253C77.4302 230.106 75.6079 229.945 73.6536 229.761C72.8745 229.691 72.0684 229.614 71.2453 229.537C67.0385 229.144 62.327 228.685 57.3581 228.163C56.5181 228.079 55.6713 227.991 54.8177 227.899C54.5942 227.873 54.3672 227.851 54.1403 227.825C50.5974 227.447 2.54053 217.376 2.54053 215.407V46.6583C2.54053 37.9792 9.02689 30.9455 17.0307 30.9455H25.6814C27.0634 30.9455 28.1743 32.1135 28.2929 33.6084C28.303 33.7075 28.3132 33.8067 28.3301 33.9059C28.5808 35.4081 29.851 36.4549 31.26 36.4549H75.2116C76.6207 36.4549 77.8909 35.4081 78.1415 33.9059C78.1584 33.8067 78.1686 33.7075 78.1788 33.6084C78.2973 32.1135 79.4083 30.9455 80.7902 30.9455H89.441C97.4448 30.9455 103.931 37.9792 103.931 46.6583Z" fill="white"/>
<path d="M0.677425 73.7365C0.303814 73.7365 0 74.066 0 74.4711V80.3478C0 80.753 0.303818 81.0824 0.677425 81.0824C1.05103 81.0824 1.35485 80.753 1.35485 80.3478V74.4711C1.35485 74.066 1.05103 73.7365 0.677425 73.7365Z" fill="#3F3D56"/>
<path d="M0.677425 91.3666C0.303814 91.3666 0 91.6961 0 92.1012V103.487C0 103.892 0.303818 104.222 0.677425 104.222C1.05103 104.222 1.35485 103.892 1.35485 103.487V92.1012C1.35485 91.6961 1.05103 91.3666 0.677425 91.3666Z" fill="#3F3D56"/>
<path d="M0.677425 107.527C0.303814 107.527 0 107.857 0 108.262V119.648C0 120.053 0.303818 120.383 0.677425 120.383C1.05103 120.383 1.35485 120.053 1.35485 119.648V108.262C1.35485 107.857 1.05103 107.527 0.677425 107.527Z" fill="#3F3D56"/>
<path d="M25.4455 33.518H12.4904C12.42 33.518 12.363 33.5798 12.363 33.6561V35.2164C12.363 35.2926 12.42 35.3545 12.4904 35.3545H25.4455C25.5158 35.3545 25.5728 35.2926 25.5728 35.2164V33.6561C25.5728 33.5798 25.5158 33.518 25.4455 33.518Z" fill="#E6E6E6"/>
<path d="M82.9308 35.3545C83.679 35.3545 84.2856 34.6967 84.2856 33.8853C84.2856 33.0739 83.679 32.4161 82.9308 32.4161C82.1825 32.4161 81.5759 33.0739 81.5759 33.8853C81.5759 34.6967 82.1825 35.3545 82.9308 35.3545Z" fill="#E6E6E6"/>
<path d="M86.6566 35.3545C87.4049 35.3545 88.0115 34.6967 88.0115 33.8853C88.0115 33.0739 87.4049 32.4161 86.6566 32.4161C85.9083 32.4161 85.3018 33.0739 85.3018 33.8853C85.3018 34.6967 85.9083 35.3545 86.6566 35.3545Z" fill="#E6E6E6"/>
<path d="M90.3824 35.3545C91.1307 35.3545 91.7373 34.6967 91.7373 33.8853C91.7373 33.0739 91.1307 32.4161 90.3824 32.4161C89.6342 32.4161 89.0276 33.0739 89.0276 33.8853C89.0276 34.6967 89.6342 35.3545 90.3824 35.3545Z" fill="#E6E6E6"/>
<path d="M81.7977 132.864H24.3349C23.4296 132.864 22.6931 132.065 22.6931 131.083C22.6931 130.102 23.4296 129.303 24.3349 129.303H81.7977C82.703 129.303 83.4395 130.102 83.4395 131.083C83.4395 132.065 82.703 132.864 81.7977 132.864Z" fill="#E6E6E6"/>
<path d="M53.2723 201.851C66.42 201.851 77.0783 190.294 77.0783 176.036C77.0783 161.779 66.42 150.222 53.2723 150.222C40.1246 150.222 29.4663 161.779 29.4663 176.036C29.4663 190.294 40.1246 201.851 53.2723 201.851Z" fill="#6C63FF"/>
<path d="M57.0559 167.608C55.0468 167.697 52.7755 167.847 51.2905 169.518C50.0004 170.971 49.7177 173.126 51.026 174.676C52.3377 176.231 54.3771 176.441 55.8891 177.654C57.6645 179.078 57.4045 181.895 55.6864 183.245C53.6604 184.837 51.0446 184.095 49.1924 182.58C48.7178 182.192 48.257 183.061 48.7263 183.445C50.3857 184.802 52.5511 185.557 54.6029 184.908C56.4546 184.322 57.89 182.685 58.036 180.555C58.1057 179.539 57.8391 178.507 57.2563 177.705C56.641 176.857 55.7549 176.336 54.859 175.912C53.3168 175.182 50.6614 174.237 51.1098 171.86C51.6533 168.979 54.8875 168.706 57.0559 168.609C57.6481 168.583 57.6512 167.581 57.0559 167.608L57.0559 167.608Z" fill="white"/>
<path d="M53.3288 166.245L53.2402 188.229C53.2376 188.873 54.1612 188.874 54.1637 188.229L54.2523 166.245C54.2549 165.6 53.3314 165.599 53.3288 166.245Z" fill="white"/>
<path d="M179.401 0H62.0294C57.7238 0 54.2227 3.79653 54.2227 8.46542V95.6834C54.2227 100.352 57.7238 104.149 62.0294 104.149H179.401C183.707 104.149 187.208 100.352 187.208 95.6834V8.46542C187.208 3.79653 183.707 0 179.401 0Z" fill="white"/>
<path d="M120.175 51.8589C127.429 51.8589 133.31 45.4823 133.31 37.6163C133.31 29.7504 127.429 23.3737 120.175 23.3737C112.921 23.3737 107.041 29.7504 107.041 37.6163C107.041 45.4823 112.921 51.8589 120.175 51.8589Z" fill="#6C63FF"/>
<path d="M122.667 31.2606C121.041 31.3333 119.211 31.445 117.981 32.757C116.962 33.8438 116.606 35.5357 117.542 36.8153C118.528 38.1626 120.167 38.4182 121.454 39.2792C122.253 39.8143 122.783 40.6249 122.8 41.6667C122.816 42.6421 122.401 43.5533 121.707 44.1646C120.005 45.6644 117.683 45.0435 116.072 43.7319C115.755 43.4738 115.448 44.0532 115.762 44.3084C117.096 45.3947 118.813 46.0256 120.473 45.5582C122.001 45.128 123.232 43.8246 123.397 42.083C123.572 40.2473 122.46 38.9974 121.019 38.2804C119.702 37.625 117.391 36.9266 117.609 34.8905C117.886 32.3016 120.809 32.0113 122.667 31.9282C123.062 31.9106 123.064 31.2429 122.667 31.2606V31.2606Z" fill="white"/>
<path d="M119.842 30.05L119.768 48.3687C119.766 48.7983 120.382 48.7989 120.383 48.3687L120.457 30.05C120.459 29.6203 119.843 29.6198 119.842 30.05Z" fill="white"/>
<path d="M179.401 0H62.0294C57.7238 0 54.2227 3.79653 54.2227 8.46542V95.6834C54.2227 100.352 57.7238 104.149 62.0294 104.149H179.401C183.707 104.149 187.208 100.352 187.208 95.6834V8.46542C187.208 3.79653 183.707 0 179.401 0ZM186.387 95.6834C186.387 99.8628 183.255 103.259 179.401 103.259H62.0294C58.1753 103.259 55.0436 99.8628 55.0436 95.6834V8.46542C55.0436 4.28613 58.1753 0.890161 62.0294 0.890161H179.401C183.255 0.890161 186.387 4.28613 186.387 8.46542V95.6834Z" fill="#3F3D56"/>
<path d="M107.183 8.6123H95.6655C95.0868 8.6123 94.6147 9.12416 94.6147 9.75171C94.6147 10.3837 95.0868 10.8956 95.6655 10.8956H107.183C107.761 10.8956 108.233 10.3837 108.233 9.75171C108.233 9.12416 107.761 8.6123 107.183 8.6123Z" fill="#E6E6E6"/>
<path d="M126.474 8.6123H114.957C114.378 8.6123 113.906 9.12416 113.906 9.75171C113.906 10.3837 114.378 10.8956 114.957 10.8956H126.474C127.052 10.8956 127.524 10.3837 127.524 9.75171C127.524 9.12416 127.052 8.6123 126.474 8.6123Z" fill="#E6E6E6"/>
<path d="M145.765 8.6123H134.248C133.669 8.6123 133.197 9.12416 133.197 9.75171C133.197 10.3837 133.669 10.8956 134.248 10.8956H145.765C146.343 10.8956 146.815 10.3837 146.815 9.75171C146.815 9.12416 146.343 8.6123 145.765 8.6123Z" fill="#E6E6E6"/>
<path d="M164.76 59.8704H76.6701C73.0048 59.8704 70.0249 63.1017 70.0249 67.0762V73.5833C70.0249 77.5579 73.0048 80.7892 76.6701 80.7892H164.76C168.426 80.7892 171.406 77.5579 171.406 73.5833V67.0762C171.406 63.1017 168.426 59.8704 164.76 59.8704Z" fill="#6C63FF"/>
<path d="M30.0364 94.1309L26.6584 92.3958C28.0439 94.4925 29.2378 97.767 29.8769 100.373C30.9591 97.9455 32.7036 94.9756 34.4303 93.2016L30.8602 94.1975C33.0601 82.5062 41.3345 74.1129 50.8098 74.1129V73.2228C40.9126 73.2228 32.2826 81.9675 30.0364 94.1309Z" fill="#3F3D56"/>
<path d="M45.5837 111.945H24.2404C23.3352 111.945 22.5986 111.146 22.5986 110.164C22.5986 109.183 23.3352 108.384 24.2404 108.384H45.5837C46.489 108.384 47.2255 109.183 47.2255 110.164C47.2255 111.146 46.489 111.945 45.5837 111.945Z" fill="#E6E6E6"/>
<path d="M187.566 106.146L187.351 124.323L183.18 140.526L179.846 139.178L181.326 124.326L181.132 104.227L187.566 106.146Z" fill="#FFB6B6"/>
<path d="M183.166 143.139C183.557 140.809 182.84 138.716 181.564 138.464C180.289 138.213 178.937 139.897 178.546 142.227C178.155 144.557 178.872 146.65 180.148 146.902C181.423 147.154 182.775 145.469 183.166 143.139Z" fill="#FFB6B6"/>
<path d="M182.505 84.5036C182.505 84.5036 189.65 84.6103 189.644 88.7259C189.64 91.0496 189.18 112.147 187.899 124.964C186.912 134.848 185.026 137.427 185.026 137.427L180.511 126.3L182.505 84.5036Z" fill="#E6E6E6"/>
<path d="M182.321 121.64H158.192C160.215 116.746 161.458 112.085 159.514 108.378L182.321 106.944C181.182 111.949 181.042 116.861 182.321 121.64Z" fill="#FFB6B6"/>
<path d="M179.347 78.2701L169.761 77.5533L165.795 82.9297L163.784 83.3262C160.769 83.9204 158.623 86.8373 158.758 90.1563L159.54 109.434L182.451 111.246L187.941 86.142L181.33 83.2881L179.347 78.2701V78.2701Z" fill="#E6E6E6"/>
<path d="M120.89 84.0854C121.57 84.7489 122.055 85.5238 122.312 86.2755L129.158 92.1518L126.485 95.6029L119.827 89.2704C119.111 89.0731 118.349 88.6313 117.669 87.9678C116.115 86.4522 115.577 84.3545 116.466 83.2824C117.355 82.2103 119.336 82.5698 120.89 84.0854L120.89 84.0854Z" fill="#FFB6B6"/>
<path d="M169.297 89.0324V89.0325L143.062 108.242L124.257 94.0509L127.08 88.5052L141.881 97.8326L155.53 86.4678C160.391 81.5171 166.483 82.4767 169.297 89.0324H169.297Z" fill="#E6E6E6"/>
<path d="M173.985 75.9434C177.913 75.9434 181.097 72.4909 181.097 68.232C181.097 63.973 177.913 60.5205 173.985 60.5205C170.058 60.5205 166.874 63.973 166.874 68.232C166.874 72.4909 170.058 75.9434 173.985 75.9434Z" fill="#FFB6B6"/>
<path d="M183.651 66.3374V67.8329L175.631 65.3849L169.618 66.7513C169.548 65.7588 169.277 64.7841 168.826 63.9206C169.14 65.3055 169.175 66.3769 168.842 66.9294L168.034 67.1118C167.902 66.7246 167.648 66.3864 167.316 66.1816C167.283 66.1594 167.242 66.1416 167.205 66.1549C167.147 66.1772 167.143 66.2573 167.143 66.3196C167.151 66.649 167.16 66.9783 167.172 67.3077L164.849 67.8329V66.3374C162.62 60.8995 168.494 56.1939 174.252 56.1451C176.85 56.123 179.198 57.2845 180.901 59.1271C182.601 60.9742 183.651 63.5201 183.651 66.3374Z" fill="#2F2E41"/>
<path d="M188.163 83.8728L187.557 83.8184C187.601 83.6037 187.644 83.3916 187.683 83.1769C188.019 81.3745 187.28 79.0801 187.225 77.3484C186.94 79.1779 187.428 81.4289 186.924 83.166C186.867 83.359 184.676 84.6046 184.616 84.7949C182.19 83.8331 179.664 80.7598 176.804 82.5548C175.113 83.6164 173.183 83.1511 171.262 82.665C170.787 82.5447 170.721 79.999 170.25 79.899C169.408 79.7199 168.17 82.034 167.377 82.1244L170.661 68.3269C170.661 60.8211 170.019 52.9461 178.788 55.6001C180.993 56.2676 183.175 56.7909 184.803 58.7645C186.43 60.7409 187.589 63.5029 188 66.6482C188.247 68.5458 189.793 74.9887 188.163 83.8728Z" fill="#2F2E41"/>
<path d="M182.501 222.621L178.587 222.721L176.405 203.652L182.181 203.503L182.501 222.621Z" fill="#FFB7B7"/>
<path d="M169.072 231.476C169.072 232.193 169.541 232.774 170.12 232.774H177.889C177.889 232.774 178.654 229.442 181.771 228.007L181.986 232.774H185.994L185.509 225.109C185.509 225.109 186.581 221.008 184.354 218.912C182.127 216.816 183.931 217.108 183.931 217.108L183.055 212.364L176.998 213.136L176.954 220.583L174.015 227.975L169.704 230.284C169.32 230.49 169.072 230.958 169.072 231.476H169.072H169.072Z" fill="#2F2E41"/>
<path d="M170.592 219.513L166.83 220.687L160.257 202.843L165.81 201.11L170.592 219.513Z" fill="#FFB7B7"/>
<path d="M159.675 231.774C159.843 232.468 160.433 232.901 160.993 232.741L168.508 230.603C168.508 230.603 168.467 227.169 171.147 224.924L172.471 229.476L176.348 228.373L174.084 221.093C174.084 221.093 174.161 216.831 171.517 215.416C168.873 214.001 170.686 213.787 170.686 213.787L168.728 209.439L163.051 211.853L164.75 219.069L163.637 227.027L160.008 230.447C159.684 230.752 159.554 231.273 159.675 231.774L159.675 231.774L159.675 231.774Z" fill="#2F2E41"/>
<path d="M180.101 120.513L182.564 121.404C186.414 129.115 188.046 139.355 187.83 151.704L183.456 207.166H176.299L171.061 145.379L161.826 168.57L168.583 207.166L161.826 207.913L148.217 167.779L157.695 121.134L180.101 120.513Z" fill="#2F2E41"/>
</g>
<defs>
<clipPath id="clip0_238_341">
<rect width="223.926" height="233" fill="white"/>
</clipPath>
</defs>
</svg>
