<svg width="273" height="233" viewBox="0 0 273 233" fill="none" xmlns="http://www.w3.org/2000/svg">
<g clip-path="url(#clip0_238_449)">
<path d="M150.249 77.6681H151.277V48.7418C151.277 44.3016 152.994 40.0433 156.051 36.9036C159.108 33.7639 163.254 32 167.577 32H227.247C229.388 32 231.507 32.433 233.485 33.2744C235.463 34.1157 237.26 35.3489 238.773 36.9035C240.287 38.4581 241.488 40.3037 242.307 42.3349C243.126 44.3661 243.548 46.5432 243.548 48.7417V207.434C243.548 209.633 243.126 211.81 242.307 213.841C241.488 215.872 240.287 217.718 238.774 219.272C237.26 220.827 235.463 222.06 233.485 222.901C231.508 223.743 229.388 224.176 227.247 224.176H167.577C165.437 224.176 163.317 223.743 161.339 222.901C159.362 222.06 157.565 220.827 156.051 219.272C154.537 217.718 153.337 215.872 152.518 213.841C151.698 211.81 151.277 209.633 151.277 207.434V98.2584H150.249V77.6681Z" fill="#3F3D56"/>
<path d="M167.043 36.7516H174.832C174.473 37.6535 174.337 38.6321 174.433 39.6011C174.53 40.57 174.857 41.4997 175.386 42.3082C175.915 43.1167 176.63 43.7791 177.467 44.2371C178.304 44.6952 179.238 44.9348 180.186 44.9349H214.37C215.319 44.9348 216.252 44.6952 217.089 44.2371C217.926 43.7791 218.641 43.1166 219.17 42.3082C219.699 41.4997 220.026 40.57 220.123 39.6011C220.22 38.6321 220.083 37.6535 219.725 36.7516H227C230.228 36.7516 233.324 38.0688 235.607 40.4135C237.89 42.7582 239.173 45.9383 239.173 49.2541V207.714C239.173 209.355 238.858 210.981 238.246 212.498C237.634 214.015 236.738 215.393 235.607 216.554C234.477 217.715 233.135 218.636 231.658 219.264C230.181 219.893 228.598 220.216 227 220.216H167.043C163.814 220.216 160.718 218.899 158.435 216.554C156.152 214.21 154.869 211.029 154.869 207.714V49.2542C154.869 47.6123 155.184 45.9865 155.796 44.4696C156.408 42.9527 157.305 41.5745 158.435 40.4135C159.565 39.2525 160.907 38.3316 162.384 37.7033C163.861 37.075 165.444 36.7516 167.043 36.7516H167.043ZM168.351 110.262C168.354 111.12 168.687 111.942 169.277 112.549C169.868 113.156 170.669 113.498 171.504 113.5H186.744C187.58 113.498 188.38 113.156 188.971 112.549C189.562 111.942 189.895 111.12 189.897 110.262V109.452C189.895 108.594 189.562 107.772 188.971 107.165C188.38 106.558 187.58 106.216 186.744 106.214H171.504C170.669 106.216 169.868 106.558 169.277 107.165C168.687 107.772 168.354 108.594 168.351 109.452V110.262ZM166.643 95.9589C166.646 96.817 166.979 97.6392 167.57 98.246C168.16 98.8528 168.961 99.1948 169.796 99.1973H224.45C225.286 99.1948 226.086 98.8528 226.677 98.246C227.268 97.6392 227.601 96.817 227.603 95.9589V95.1493C227.601 94.2912 227.268 93.4689 226.677 92.8621C226.086 92.2553 225.286 91.9134 224.45 91.9108H169.796C168.961 91.9134 168.16 92.2553 167.57 92.8621C166.979 93.4689 166.646 94.2912 166.643 95.1493V95.9589ZM166.643 81.6558C166.646 82.5139 166.979 83.3362 167.57 83.943C168.16 84.5497 168.961 84.8917 169.796 84.8943H224.45C225.286 84.8917 226.086 84.5498 226.677 83.943C227.268 83.3362 227.601 82.5139 227.603 81.6558V80.8462C227.601 79.9881 227.268 79.1659 226.677 78.5591C226.086 77.9523 225.286 77.6103 224.45 77.6078H169.796C168.961 77.6103 168.16 77.9523 167.57 78.5591C166.979 79.1659 166.646 79.9881 166.643 80.8462V81.6558ZM166.643 67.3528C166.646 68.2109 166.979 69.0331 167.57 69.6399C168.16 70.2467 168.961 70.5887 169.796 70.5912H224.45C225.286 70.5887 226.086 70.2467 226.677 69.6399C227.268 69.0331 227.601 68.2109 227.603 67.3528V66.5432C227.601 65.6851 227.268 64.8628 226.677 64.256C226.086 63.6493 225.286 63.3073 224.45 63.3048H169.796C168.961 63.3073 168.16 63.6493 167.57 64.256C166.979 64.8628 166.646 65.6851 166.643 66.5432V67.3528Z" fill="white"/>
<path d="M223.268 97.5781C222.252 97.5781 221.428 96.7323 221.428 95.689C221.428 94.6457 222.252 93.7999 223.268 93.7999C224.283 93.7999 225.107 94.6457 225.107 95.689C225.107 96.7323 224.283 97.5781 223.268 97.5781Z" fill="white"/>
<path d="M217.224 97.5781C216.208 97.5781 215.385 96.7323 215.385 95.689C215.385 94.6457 216.208 93.7999 217.224 93.7999C218.24 93.7999 219.063 94.6457 219.063 95.689C219.063 96.7323 218.24 97.5781 217.224 97.5781Z" fill="white"/>
<path d="M211.181 97.5781C210.165 97.5781 209.341 96.7323 209.341 95.689C209.341 94.6457 210.165 93.7999 211.181 93.7999C212.197 93.7999 213.02 94.6457 213.02 95.689C213.02 96.7323 212.197 97.5781 211.181 97.5781Z" fill="white"/>
<path d="M205.137 97.5781C204.121 97.5781 203.298 96.7323 203.298 95.689C203.298 94.6457 204.121 93.7999 205.137 93.7999C206.153 93.7999 206.977 94.6457 206.977 95.689C206.977 96.7323 206.153 97.5781 205.137 97.5781Z" fill="white"/>
<path d="M185.43 111.881C184.415 111.881 183.591 111.035 183.591 109.992C183.591 108.949 184.415 108.103 185.43 108.103C186.446 108.103 187.27 108.949 187.27 109.992C187.27 111.035 186.446 111.881 185.43 111.881Z" fill="white"/>
<path d="M179.387 111.881C178.371 111.881 177.548 111.035 177.548 109.992C177.548 108.949 178.371 108.103 179.387 108.103C180.403 108.103 181.226 108.949 181.226 109.992C181.226 111.035 180.403 111.881 179.387 111.881Z" fill="white"/>
<path d="M173.344 111.881C172.328 111.881 171.504 111.035 171.504 109.992C171.504 108.949 172.328 108.103 173.344 108.103C174.359 108.103 175.183 108.949 175.183 109.992C175.183 111.035 174.359 111.881 173.344 111.881Z" fill="white"/>
<path d="M166.22 134.469H228.552C230.016 134.469 231.42 135.066 232.456 136.13C233.491 137.193 234.073 138.635 234.073 140.139V171.33C234.073 172.834 233.491 174.277 232.456 175.34C231.42 176.404 230.016 177.001 228.552 177.001H166.22C164.756 177.001 163.352 176.404 162.316 175.34C161.281 174.277 160.699 172.834 160.699 171.33V140.139C160.699 138.635 161.281 137.193 162.316 136.13C163.352 135.066 164.756 134.469 166.22 134.469H166.22ZM230.094 138.337C229.971 138.314 227.052 137.804 224.635 139.298C222.218 140.791 221.29 143.679 221.252 143.801L221.154 144.112L221.468 144.169C221.915 144.241 222.367 144.275 222.82 144.271C224.257 144.299 225.674 143.932 226.926 143.208C229.343 141.715 230.271 138.828 230.31 138.706L230.407 138.394L230.094 138.337ZM216.563 167.296H227.681C228.491 167.296 229.269 166.965 229.842 166.376C230.416 165.787 230.738 164.988 230.738 164.156C230.738 163.323 230.416 162.524 229.842 161.935C229.269 161.347 228.491 161.016 227.681 161.016H216.563C215.752 161.016 214.975 161.347 214.401 161.935C213.828 162.524 213.506 163.323 213.506 164.156C213.506 164.988 213.828 165.787 214.401 166.376C214.975 166.965 215.752 167.296 216.563 167.296ZM165.98 166.725C165.982 167.632 166.335 168.502 166.959 169.144C167.584 169.786 168.431 170.148 169.315 170.15H177.653C178.537 170.148 179.383 169.786 180.008 169.144C180.633 168.502 180.985 167.632 180.988 166.725V161.587C180.985 160.679 180.633 159.809 180.008 159.167C179.383 158.526 178.537 158.164 177.653 158.161H169.315C168.431 158.164 167.584 158.526 166.959 159.167C166.335 159.809 165.982 160.679 165.98 161.587L165.98 166.725Z" fill="#6C63FF"/>
<path d="M174.964 165.666H178.317C178.556 165.666 178.786 165.764 178.955 165.937C179.124 166.111 179.219 166.347 179.219 166.593C179.219 166.839 179.124 167.075 178.955 167.248C178.786 167.422 178.556 167.52 178.317 167.52H174.964C174.725 167.52 174.495 167.422 174.326 167.248C174.157 167.075 174.062 166.839 174.062 166.593C174.062 166.347 174.157 166.111 174.326 165.937C174.495 165.764 174.725 165.666 174.964 165.666Z" fill="#3F3D56"/>
<path d="M168.775 165.666H172.128C172.367 165.666 172.597 165.764 172.766 165.937C172.935 166.111 173.03 166.347 173.03 166.593C173.03 166.839 172.935 167.075 172.766 167.248C172.597 167.422 172.367 167.52 172.128 167.52H168.775C168.536 167.52 168.306 167.422 168.137 167.248C167.968 167.075 167.873 166.839 167.873 166.593C167.873 166.347 167.968 166.111 168.137 165.937C168.306 165.764 168.536 165.666 168.775 165.666Z" fill="#3F3D56"/>
<path d="M174.965 163.049H178.317C178.557 163.049 178.786 163.147 178.956 163.321C179.125 163.495 179.22 163.73 179.22 163.976C179.22 164.222 179.125 164.458 178.956 164.632C178.786 164.806 178.557 164.903 178.317 164.903H174.965C174.726 164.903 174.496 164.806 174.327 164.632C174.157 164.458 174.062 164.222 174.062 163.976C174.062 163.73 174.157 163.495 174.327 163.321C174.496 163.147 174.726 163.049 174.965 163.049Z" fill="#3F3D56"/>
<path d="M168.776 163.049H172.128C172.368 163.049 172.597 163.147 172.766 163.321C172.936 163.495 173.031 163.73 173.031 163.976C173.031 164.222 172.936 164.458 172.766 164.632C172.597 164.806 172.368 164.903 172.128 164.903H168.776C168.536 164.903 168.307 164.806 168.137 164.632C167.968 164.458 167.873 164.222 167.873 163.976C167.873 163.73 167.968 163.495 168.137 163.321C168.307 163.147 168.536 163.049 168.776 163.049H168.776Z" fill="#3F3D56"/>
<path d="M174.965 160.485H178.317C178.557 160.485 178.786 160.583 178.956 160.757C179.125 160.931 179.22 161.166 179.22 161.412C179.22 161.658 179.125 161.894 178.956 162.068C178.786 162.242 178.557 162.339 178.317 162.339H174.965C174.726 162.339 174.496 162.242 174.327 162.068C174.157 161.894 174.062 161.658 174.062 161.412C174.062 161.166 174.157 160.931 174.327 160.757C174.496 160.583 174.726 160.485 174.965 160.485Z" fill="#3F3D56"/>
<path d="M168.776 160.485H172.128C172.368 160.485 172.597 160.583 172.766 160.757C172.936 160.931 173.031 161.166 173.031 161.412C173.031 161.658 172.936 161.894 172.766 162.068C172.597 162.242 172.368 162.339 172.128 162.339H168.776C168.536 162.339 168.307 162.242 168.137 162.068C167.968 161.894 167.873 161.658 167.873 161.412C167.873 161.166 167.968 160.931 168.137 160.757C168.307 160.583 168.536 160.485 168.776 160.485H168.776Z" fill="#3F3D56"/>
<path d="M123.049 146.218H131.179V154.568H123.049V146.218Z" fill="#E6E6E6"/>
<path d="M140.761 151.288H127.404V165.006H140.761V151.288ZM127.985 151.884H140.18V164.41H127.985V151.884Z" fill="#3F3D56"/>
<path d="M264.455 77.3294H272.585V85.6795H264.455V77.3294Z" fill="#E6E6E6"/>
<path d="M254.873 80.6098H268.23V66.8917H254.873V80.6098ZM267.649 80.0134H255.454V67.4881H267.649V80.0134Z" fill="#3F3D56"/>
<path d="M82.9567 229.247H86.5166L88.21 215.145H82.9562L82.9567 229.247Z" fill="#FFB8B8"/>
<path d="M89.0593 228.203H82.194V232.642H93.3818C93.3818 231.465 92.9264 230.336 92.1158 229.503C91.3052 228.67 90.2057 228.203 89.0593 228.203Z" fill="#2F2E41"/>
<path d="M65.2445 229.247H68.8044L70.4978 215.145H65.244L65.2445 229.247Z" fill="#FFB8B8"/>
<path d="M71.3471 228.203H64.4818V232.642H75.6697C75.6697 231.465 75.2143 230.336 74.4036 229.503C73.593 228.67 72.4935 228.203 71.3471 228.203Z" fill="#2F2E41"/>
<path d="M100.814 178.815C101.07 178.427 101.241 177.987 101.313 177.524C101.385 177.062 101.358 176.589 101.233 176.138C101.108 175.688 100.889 175.271 100.59 174.917C100.292 174.563 99.9209 174.281 99.5045 174.09L87.4035 139.834L81.449 143.172L95.2658 175.908C94.9999 176.647 95.0075 177.462 95.2871 178.196C95.5667 178.93 96.0989 179.534 96.7828 179.892C97.4667 180.25 98.2549 180.339 98.9979 180.14C99.7409 179.941 100.387 179.47 100.814 178.815Z" fill="#FFB8B8"/>
<path d="M67.0628 185.251C67.4584 185.018 67.7994 184.699 68.0619 184.316C68.3244 183.933 68.502 183.496 68.5821 183.035C68.6622 182.574 68.6428 182.1 68.5255 181.647C68.4081 181.195 68.1956 180.774 67.9028 180.415L71.6516 144.179L64.8752 144.497L63.3172 180.14C62.7624 180.685 62.4217 181.42 62.3594 182.206C62.2972 182.992 62.5178 183.774 62.9795 184.404C63.4412 185.034 64.1119 185.469 64.8644 185.625C65.617 185.781 66.3992 185.648 67.0628 185.251V185.251Z" fill="#FFB8B8"/>
<path d="M77.8733 133.489C73.9346 133.489 70.7417 130.21 70.7417 126.165C70.7417 122.119 73.9346 118.84 77.8733 118.84C81.812 118.84 85.0049 122.119 85.0049 126.165C85.0049 130.21 81.812 133.489 77.8733 133.489Z" fill="#FFB8B8"/>
<path d="M67.1084 177.01H88.6089L88.583 176.838C88.5444 176.581 84.7512 151.06 87.5488 142.711C87.8295 141.891 87.8048 140.992 87.4795 140.19C87.1541 139.387 86.5511 138.736 85.7865 138.362H85.7864C81.7876 136.428 74.1116 134.046 67.6329 139.826C66.6796 140.691 65.9351 141.771 65.4584 142.982C64.9817 144.193 64.7858 145.501 64.8862 146.803L67.1084 177.01Z" fill="#CCCCCC"/>
<path d="M84.4795 154.832L94.1592 152.815L89.6219 141.772C89.3504 140.702 88.6769 139.787 87.7492 139.227C86.8215 138.666 85.7153 138.507 84.6732 138.783C83.6311 139.06 82.7383 139.749 82.1906 140.701C81.6428 141.652 81.4849 142.788 81.7515 143.859L84.4795 154.832Z" fill="#CCCCCC"/>
<path d="M72.082 158.577L72.6639 144.876C73.1052 142.301 71.6697 139.866 69.462 139.468C67.2537 139.072 65.0974 140.858 64.6541 143.452L62.4668 156.254L72.082 158.577Z" fill="#CCCCCC"/>
<path d="M67.8238 175.37C64.3642 188.902 63.9868 206.107 64.9201 224.874L69.5659 224.278L77.9864 188.491L82.6322 224.874L87.8588 224.576C89.4202 204.885 90.9405 187.98 88.4395 176.861L67.8238 175.37Z" fill="#2F2E41"/>
<path d="M73.1741 131.825C74.5045 133.281 76.9753 132.5 77.1486 130.511C77.1622 130.357 77.1613 130.201 77.1457 130.047C77.0562 129.166 76.5607 128.367 76.6794 127.437C76.7063 127.205 76.7902 126.985 76.9234 126.796C77.9835 125.338 80.4722 127.448 81.4728 126.128C82.0864 125.319 81.3652 124.044 81.836 123.14C82.4574 121.946 84.2979 122.535 85.4521 121.881C86.7363 121.153 86.6595 119.13 85.8141 117.899C84.7832 116.398 82.9756 115.597 81.1906 115.481C79.4055 115.366 77.6328 115.861 75.9663 116.528C74.0728 117.286 72.1952 118.334 71.0299 120.044C69.6129 122.123 69.4766 124.919 70.1852 127.351C70.6163 128.83 72.0876 130.637 73.1741 131.825Z" fill="#2F2E41"/>
<path d="M24.2904 233H134.918C134.995 233 135.069 232.969 135.124 232.913C135.178 232.857 135.209 232.781 135.209 232.702C135.209 232.623 135.178 232.547 135.124 232.491C135.069 232.435 134.995 232.404 134.918 232.404H24.2904C24.2134 232.404 24.1396 232.435 24.0851 232.491C24.0307 232.547 24 232.623 24 232.702C24 232.781 24.0307 232.857 24.0851 232.913C24.1396 232.969 24.2134 233 24.2904 233Z" fill="#3F3D56"/>
</g>
<defs>
<clipPath id="clip0_238_449">
<rect width="248.585" height="201" fill="white" transform="matrix(-1 0 0 1 272.585 32)"/>
</clipPath>
</defs>
</svg>
