<svg width="200" height="201" viewBox="0 0 200 201" fill="none" xmlns="http://www.w3.org/2000/svg">
<g clip-path="url(#clip0_238_657)">
<path d="M176.516 88.0242C176.494 87.1949 176.17 86.4074 175.613 85.8295C175.056 85.2515 174.31 84.9286 173.533 84.9294C173.376 84.9322 173.218 84.949 173.063 84.9796L167.85 75.3656L162.353 76.4759L170.828 88.8208C170.996 89.4988 171.37 90.0981 171.891 90.5252C172.411 90.9524 173.05 91.1833 173.706 91.1819C174.08 91.1774 174.449 91.0942 174.792 90.9372C175.136 90.7802 175.447 90.5525 175.708 90.267C175.969 89.9816 176.175 89.6439 176.314 89.2734C176.453 88.9029 176.522 88.5068 176.518 88.1076C176.518 88.0798 176.517 88.052 176.516 88.0242Z" fill="#A0616A"/>
<path d="M158.812 194.741L154.456 194.74L152.384 176.788L158.813 176.788L158.812 194.741Z" fill="#A0616A"/>
<path d="M158.965 199.596L145.57 199.595V199.414C145.571 197.937 146.12 196.52 147.098 195.475C148.075 194.431 149.401 193.844 150.784 193.844H150.784L153.231 191.86L157.796 193.844L158.966 193.844L158.965 199.596Z" fill="#2F2E41"/>
<path d="M163.402 167.999L160.467 171.437L146.656 160.976L150.988 155.9L163.402 167.999Z" fill="#A0616A"/>
<path d="M166.863 171.149L157.836 181.724L157.711 181.602C156.689 180.606 156.08 179.218 156.016 177.742C155.953 176.266 156.44 174.824 157.372 173.732L157.372 173.732L157.649 170.464L162.097 168.196L162.885 167.273L166.863 171.149Z" fill="#2F2E41"/>
<path d="M130.807 75.5047L122.647 91.3815L123.274 102.777L119.824 139.645L152.132 168.47L156.21 162.101L138.017 137.299L138.235 135.541C137.914 135.024 137.778 134.401 137.855 133.786C137.931 133.172 138.213 132.607 138.65 132.198C140.213 130.596 138.884 130.306 138.884 130.306L141.467 109.48L159.974 105.527L152.211 74.2289L130.807 75.5047Z" fill="#2F2E41"/>
<path d="M141.781 98.0848L151.505 185.563L159.974 186.474V155.9C159.974 155.9 158.406 154.237 159.974 153.477C161.542 152.717 159.974 149.867 159.974 149.867V105.527L152.132 92.387L141.781 98.0848Z" fill="#2F2E41"/>
<path d="M124.529 25.0187L117.001 28.0352L112.609 38.7605C112.609 38.7605 102.572 44.1231 106.336 51.4968C110.1 58.8704 125.246 75.0547 125.246 75.0547C123.393 78.9171 124.027 81.8883 127.038 84.0079C130.969 90.7455 142.007 87.4447 154.328 82.332C156.608 76.3912 153.078 67.1904 149.609 58.0233L150.564 45.799C150.564 45.799 139.743 28.9747 138.017 29.0407C136.29 29.1066 129.548 28.3704 129.548 28.3704L124.529 25.0187Z" fill="#3F3D56"/>
<path d="M135.194 30.7508C135.841 30.0956 136.616 29.6018 137.464 29.305C138.311 29.0081 139.21 28.9157 140.094 29.0342C140.979 29.1527 141.828 29.4793 142.581 29.9904C143.334 30.5016 143.971 31.1846 144.447 31.9903L160.856 59.7665C162.431 60.5634 163.223 62.3607 163.693 64.5682C164.863 64.1442 165.748 64.9686 166.018 68.504L172.207 78.9804L166.561 85.6837L158.752 74.6235C156.937 74.1106 157.781 71.3303 156.525 71.4685C155.269 71.6068 154.662 68.8291 154.662 68.8291C153.077 68.81 152.612 68.0157 153.073 66.5793L137.076 42.1518L135.194 30.7508Z" fill="#3F3D56"/>
<path d="M65.4167 30.1256C65.6562 30.9148 66.1745 31.5729 66.8613 31.96C67.548 32.3471 68.349 32.4326 69.0939 32.1983C69.2446 32.1481 69.3911 32.0847 69.532 32.0087L77.0671 39.6663L82.0488 36.948L70.6653 27.6505C70.3251 27.0506 69.8085 26.5879 69.1964 26.3346C68.5842 26.0814 67.9107 26.0518 67.2811 26.2505C66.9239 26.3672 66.5917 26.558 66.3035 26.8119C66.0152 27.0658 65.7766 27.3779 65.6013 27.7304C65.4259 28.0829 65.3173 28.4688 65.2815 28.8661C65.2457 29.2634 65.2836 29.6644 65.3928 30.0461C65.4004 30.0727 65.4084 30.0992 65.4167 30.1256Z" fill="#A0616A"/>
<path d="M111.982 41.777L101.631 45.1287L94.3345 43.8896L92.698 42.6403C91.9933 40.6044 90.5732 39.6471 88.6809 39.4016C88.6809 39.4016 87.1502 39.9621 87.1758 38.1882C87.2015 36.4143 77.1639 30.0462 77.1639 30.0462L72.7725 38.4253L78.4186 45.799C80.4228 45.8651 81.6578 45.5825 80.6143 48.1451C81.0402 50.613 80.7456 50.0401 82.4659 50.0852L91.2793 59.5408L109.786 62.5573L121.54 58.1334L111.982 41.777Z" fill="#3F3D56"/>
<path d="M114.557 24.6258C119.878 24.6258 124.192 20.0165 124.192 14.3307C124.192 8.64489 119.878 4.03561 114.557 4.03561C109.236 4.03561 104.922 8.64489 104.922 14.3307C104.922 20.0165 109.236 24.6258 114.557 24.6258Z" fill="#A0616A"/>
<path d="M120.739 14.1317C120.731 14.0169 120.72 13.9022 120.706 13.7874C120.692 13.9034 120.704 14.0211 120.739 14.1317Z" fill="#2F2E41"/>
<path d="M101.149 7.26395C100.98 6.02877 101.623 4.62871 102.749 4.28613C103.45 4.07219 104.199 4.27723 104.926 4.29077C106.967 4.32763 110.595 0.694463 112.565 0.13785C114.538 -0.417185 117.093 0.742798 117.252 2.91651C122.299 1.31091 126.153 4.94353 126.388 10.6725C126.572 15.1529 123.006 21.2595 119.246 23.2525C118.785 20.6453 120.491 16.7372 120.031 14.1327C119.952 13.4152 119.735 12.7228 119.395 12.0983C119.018 11.501 118.327 11.0693 117.674 11.2459C117.408 11.3302 117.18 11.5182 117.037 11.7727C116.894 12.0272 116.845 12.3297 116.901 12.6207C116.519 11.9271 115.98 11.3464 115.335 10.9309C114.69 10.5154 113.958 10.2783 113.206 10.241C112.453 10.2037 111.704 10.3675 111.025 10.7174C110.347 11.0674 109.761 11.5925 109.32 12.2453L109.853 9.90316C108.502 11.4901 106.755 12.632 104.818 13.1948C104.707 13.0472 104.624 12.8787 104.573 12.6981C104.517 12.513 104.506 12.3156 104.543 12.125C104.579 11.9345 104.661 11.7572 104.781 11.6105C104.52 11.8261 104.302 12.0961 104.141 12.404C103.98 12.7119 103.88 13.0515 103.845 13.4021C102.679 13.6175 101.48 13.3655 100.477 12.6945C99.5095 11.9907 101.318 8.49912 101.149 7.26395Z" fill="#2F2E41"/>
<path d="M189.18 200.656H178.77L178.726 200.57C178.593 200.312 178.464 200.038 178.344 199.758C177.272 197.305 176.819 194.499 176.419 192.024L176.117 190.159C176.081 189.933 176.108 189.7 176.196 189.491C176.284 189.282 176.429 189.105 176.611 188.984C176.793 188.863 177.005 188.803 177.219 188.812C177.434 188.82 177.641 188.897 177.814 189.032C179.397 190.262 180.979 191.491 182.562 192.718C183.162 193.184 183.846 193.724 184.502 194.307C184.565 193.978 184.632 193.649 184.698 193.324C184.743 193.1 184.851 192.896 185.006 192.737C185.161 192.578 185.356 192.473 185.568 192.433C185.78 192.394 185.997 192.424 186.193 192.517C186.389 192.611 186.554 192.766 186.668 192.96L187.886 195.051C188.774 196.578 189.558 198.083 189.398 199.706C189.399 199.725 189.398 199.745 189.394 199.764C189.362 200.031 189.303 200.293 189.218 200.546L189.18 200.656Z" fill="#F0F0F0"/>
<path d="M199.628 200.897L100.709 201C100.61 200.999 100.516 200.957 100.446 200.882C100.376 200.808 100.337 200.706 100.337 200.601C100.337 200.495 100.376 200.394 100.446 200.319C100.516 200.245 100.61 200.202 100.709 200.202L199.628 200.099C199.727 200.099 199.822 200.142 199.891 200.216C199.961 200.291 200 200.392 200 200.498C200 200.603 199.961 200.705 199.891 200.779C199.822 200.854 199.727 200.896 199.628 200.897Z" fill="#CACACA"/>
<path d="M86.5742 158.415H7.21452C5.30177 158.412 3.46797 157.599 2.11546 156.154C0.762937 154.709 0.00214863 152.75 0 150.706V36.7495C0.00217432 34.7057 0.762972 32.7463 2.11548 31.3011C3.468 29.856 5.30177 29.043 7.21452 29.0407H86.5742C88.4869 29.043 90.3207 29.856 91.6732 31.3011C93.0257 32.7463 93.7865 34.7057 93.7887 36.7495V150.706C93.7866 152.75 93.0258 154.709 91.6732 156.154C90.3207 157.599 88.4869 158.412 86.5742 158.415Z" fill="white"/>
<path d="M86.5742 158.415H7.21452C5.30177 158.412 3.46797 157.599 2.11546 156.154C0.762937 154.709 0.00214863 152.75 0 150.706V36.7495C0.00217432 34.7057 0.762972 32.7463 2.11548 31.3011C3.468 29.856 5.30177 29.043 7.21452 29.0407H86.5742C88.4869 29.043 90.3207 29.856 91.6732 31.3011C93.0257 32.7463 93.7865 34.7057 93.7887 36.7495V150.706C93.7866 152.75 93.0258 154.709 91.6732 156.154C90.3207 157.599 88.4869 158.412 86.5742 158.415ZM7.21452 29.711C5.46809 29.7131 3.79376 30.4554 2.55885 31.7749C1.32394 33.0944 0.629308 34.8834 0.627349 36.7495V150.706C0.629333 152.572 1.32397 154.361 2.55888 155.68C3.79378 157 5.4681 157.742 7.21452 157.744H86.5742C88.3206 157.742 89.9949 157 91.2298 155.68C92.4647 154.361 93.1594 152.572 93.1614 150.706V36.7495C93.1594 34.8834 92.4648 33.0944 91.2299 31.7749C89.995 30.4554 88.3206 29.7131 86.5742 29.711H7.21452Z" fill="#E6E6E6"/>
<path d="M18.9774 66.6643C20.5365 66.6643 21.8004 65.3137 21.8004 63.6478C21.8004 61.9818 20.5365 60.6313 18.9774 60.6313C17.4182 60.6313 16.1543 61.9818 16.1543 63.6478C16.1543 65.3137 17.4182 66.6643 18.9774 66.6643Z" fill="#CCCCCC"/>
<path d="M77.0071 63.9829H28.6246C28.5414 63.9829 28.4616 63.9476 28.4028 63.8848C28.344 63.8219 28.3109 63.7367 28.3109 63.6478C28.3109 63.5589 28.344 63.4736 28.4028 63.4108C28.4616 63.3479 28.5414 63.3126 28.6246 63.3126H77.0071C77.0903 63.3126 77.17 63.3479 77.2289 63.4108C77.2877 63.4736 77.3207 63.5589 77.3207 63.6478C77.3207 63.7367 77.2877 63.8219 77.2289 63.8848C77.17 63.9476 77.0903 63.9829 77.0071 63.9829Z" fill="#CCCCCC"/>
<path d="M19.1341 122.637C20.6932 122.637 21.9572 121.286 21.9572 119.62C21.9572 117.955 20.6932 116.604 19.1341 116.604C17.575 116.604 16.311 117.955 16.311 119.62C16.311 121.286 17.575 122.637 19.1341 122.637Z" fill="#CCCCCC"/>
<path d="M18.9965 90.6618C20.5557 90.6618 21.8196 89.3113 21.8196 87.6454C21.8196 85.9794 20.5557 84.6289 18.9965 84.6289C17.4374 84.6289 16.1735 85.9794 16.1735 87.6454C16.1735 89.3113 17.4374 90.6618 18.9965 90.6618Z" fill="#CCCCCC"/>
<path d="M76.3798 72.2278H63.8328C63.5001 72.2278 63.1809 72.0865 62.9456 71.8351C62.7103 71.5837 62.5781 71.2427 62.5781 70.8871C62.5781 70.5315 62.7103 70.1905 62.9456 69.9391C63.1809 69.6877 63.5001 69.5464 63.8328 69.5464H76.3798C76.7126 69.5464 77.0317 69.6877 77.267 69.9391C77.5023 70.1905 77.6345 70.5315 77.6345 70.8871C77.6345 71.2427 77.5023 71.5837 77.267 71.8351C77.0317 72.0865 76.7126 72.2278 76.3798 72.2278Z" fill="#6C63FF"/>
<path d="M76.3798 105.409H63.8328C63.5001 105.409 63.1809 105.268 62.9456 105.016C62.7103 104.765 62.5781 104.424 62.5781 104.068C62.5781 103.713 62.7103 103.372 62.9456 103.12C63.1809 102.869 63.5001 102.728 63.8328 102.728H76.3798C76.7126 102.728 77.0317 102.869 77.267 103.12C77.5023 103.372 77.6345 103.713 77.6345 104.068C77.6345 104.424 77.5023 104.765 77.267 105.016C77.0317 105.268 76.7126 105.409 76.3798 105.409Z" fill="#6C63FF"/>
<path d="M67.345 47.2247H31.3058C30.4278 47.2247 29.5858 46.852 28.965 46.1887C28.3442 45.5254 27.9955 44.6257 27.9955 43.6876C27.9955 42.7495 28.3442 41.8498 28.965 41.1865C29.5858 40.5232 30.4278 40.1505 31.3058 40.1505H67.345C68.2229 40.1505 69.0649 40.5232 69.6857 41.1865C70.3065 41.8498 70.6552 42.7495 70.6552 43.6876C70.6552 44.6257 70.3065 45.5254 69.6857 46.1887C69.0649 46.852 68.2229 47.2247 67.345 47.2247Z" fill="#6C63FF"/>
<path d="M76.3798 147.305H63.8328C63.5001 147.305 63.1809 147.164 62.9456 146.912C62.7103 146.661 62.5781 146.32 62.5781 145.964C62.5781 145.609 62.7103 145.268 62.9456 145.016C63.1809 144.765 63.5001 144.624 63.8328 144.624H76.3798C76.7126 144.624 77.0317 144.765 77.267 145.016C77.5023 145.268 77.6345 145.609 77.6345 145.964C77.6345 146.32 77.5023 146.661 77.267 146.912C77.0317 147.164 76.7126 147.305 76.3798 147.305Z" fill="#6C63FF"/>
<path d="M73.9362 139.06H31.7251C31.4587 139.057 31.1935 139.021 30.9348 138.953C30.1625 138.755 29.4755 138.284 28.9848 137.617C28.494 136.949 28.2284 136.125 28.2307 135.276V119.945C28.2322 118.943 28.6059 117.981 29.2698 117.273C29.9337 116.564 30.8336 116.166 31.7721 116.165H73.9362C74.5046 116.163 75.0648 116.31 75.5682 116.592C75.7686 116.703 75.9582 116.835 76.1341 116.986C76.5542 117.338 76.8936 117.787 77.1264 118.3C77.3593 118.813 77.4794 119.375 77.4776 119.945V135.276C77.4766 136.279 77.1032 137.241 76.4392 137.951C75.7753 138.66 74.8752 139.059 73.9362 139.06ZM31.7721 116.835C31 116.836 30.2595 117.163 29.7132 117.746C29.1669 118.33 28.8594 119.12 28.8581 119.945V135.276C28.8562 135.974 29.0748 136.653 29.4787 137.202C29.8825 137.751 30.448 138.139 31.0835 138.302C31.2949 138.357 31.5114 138.387 31.7289 138.39H73.9362C74.7088 138.389 75.4495 138.06 75.9958 137.477C76.5421 136.893 76.8494 136.102 76.8503 135.276V119.945C76.8516 119.476 76.7526 119.013 76.5608 118.591C76.369 118.169 76.0895 117.8 75.7437 117.511C75.5993 117.387 75.4437 117.278 75.2791 117.187C74.8649 116.954 74.4039 116.834 73.9362 116.835H31.7721Z" fill="#E6E6E6"/>
<path d="M71.1069 138.725C73.0235 133.748 75.0425 128.82 77.164 123.941V132.213C75.7174 134.564 74.0436 136.747 72.1703 138.725H71.1069Z" fill="#E6E6E6"/>
<path d="M75.9375 117.247C72.1452 124.517 68.1772 131.676 64.0336 138.725H63.3121C67.5248 131.566 71.5618 124.287 75.4231 116.889C75.6053 116.99 75.7777 117.11 75.9375 117.247Z" fill="#E6E6E6"/>
<path d="M48.1083 125.184C45.6301 129.866 42.8953 134.387 39.9183 138.725H35.6178C38.4346 135.058 41.2535 131.391 44.0745 127.725C44.8837 126.669 45.762 125.563 46.976 125.134L48.1083 125.184Z" fill="#E6E6E6"/>
<path d="M42.3931 124.433C41.9446 124.933 41.5148 125.452 41.1102 125.992C40.2194 127.138 39.3411 128.295 38.4596 129.448C37.9107 130.165 37.3618 130.882 36.8191 131.599C36.6468 131.481 36.4832 131.349 36.3298 131.204C35.4631 130.4 34.9255 129.265 34.8323 128.043C34.739 126.821 35.0975 125.608 35.8309 124.665C36.5644 123.722 37.6144 123.123 38.756 122.997C39.8976 122.871 41.0399 123.228 41.9383 123.991C42.1002 124.126 42.2522 124.274 42.3931 124.433Z" fill="#6C63FF"/>
<path d="M66.6496 127.691L58.4062 124.47L54.3128 122.872C52.9797 122.352 51.6497 121.759 50.2726 121.383C49.0751 121.018 47.8035 121.035 46.6152 121.434C45.5556 121.853 44.5858 122.496 43.7639 123.324C43.4 123.683 43.0477 124.052 42.7068 124.433C42.2583 124.933 41.8285 125.452 41.4239 125.992C40.5331 127.138 39.6548 128.295 38.7733 129.448C38.2244 130.165 37.6755 130.882 37.1328 131.599C35.3198 133.969 33.5172 136.344 31.7251 138.725C31.484 138.722 31.244 138.689 31.0099 138.628C32.8794 136.147 34.7573 133.673 36.6435 131.204C36.8599 130.916 37.0826 130.624 37.3022 130.336C38.2213 129.132 39.1414 127.93 40.0625 126.729C40.7746 125.801 41.4803 124.866 42.252 123.991C42.321 123.911 42.39 123.833 42.4621 123.753C44.0274 122.024 45.9816 120.495 48.3216 120.455C49.6986 120.432 51.0286 120.897 52.3084 121.39C53.6854 121.923 55.0593 122.466 56.4363 123.006L64.7362 126.25L66.8127 127.061C67.1797 127.202 67.0229 127.839 66.6496 127.691Z" fill="#E6E6E6"/>
<path d="M39.8485 97.0944H30.0655C29.5426 97.0938 29.0412 96.8716 28.6715 96.4765C28.3017 96.0814 28.0937 95.5457 28.0931 94.9869V85.2081C28.0937 84.6493 28.3017 84.1136 28.6715 83.7185C29.0412 83.3234 29.5426 83.1012 30.0655 83.1006H39.8485C40.3714 83.1012 40.8728 83.3234 41.2425 83.7185C41.6123 84.1136 41.8203 84.6493 41.8209 85.2081V94.9869C41.8203 95.5457 41.6123 96.0814 41.2425 96.4765C40.8728 96.8716 40.3714 97.0938 39.8485 97.0944Z" fill="#E6E6E6"/>
<path d="M57.2986 97.0944H47.5156C46.9927 97.0938 46.4913 96.8716 46.1216 96.4765C45.7518 96.0814 45.5438 95.5457 45.5432 94.9869V85.2081C45.5438 84.6493 45.7518 84.1136 46.1216 83.7185C46.4913 83.3234 46.9927 83.1012 47.5156 83.1006H57.2986C57.8215 83.1012 58.3229 83.3234 58.6926 83.7185C59.0624 84.1136 59.2704 84.6493 59.271 85.2081V94.9869C59.2704 95.5457 59.0624 96.0814 58.6926 96.4765C58.3228 96.8716 57.8215 97.0938 57.2986 97.0944Z" fill="#E6E6E6"/>
<path d="M74.7487 97.0944H64.9657C64.4427 97.0938 63.9414 96.8716 63.5716 96.4765C63.2019 96.0814 62.9939 95.5457 62.9933 94.9869V85.2081C62.9939 84.6493 63.2019 84.1136 63.5716 83.7185C63.9414 83.3234 64.4427 83.1012 64.9657 83.1006H74.7487C75.2716 83.1012 75.7729 83.3234 76.1427 83.7185C76.5125 84.1136 76.7204 84.6493 76.721 85.2081V94.9869C76.7204 95.5457 76.5125 96.0814 76.1427 96.4765C75.7729 96.8716 75.2716 97.0938 74.7487 97.0944Z" fill="#E6E6E6"/>
</g>
<defs>
<clipPath id="clip0_238_657">
<rect width="200" height="201" fill="white"/>
</clipPath>
</defs>
</svg>
